#N canvas 261 310 458 573 10;
#X obj 9 -103 adc~;
#X obj 10 84 *~;
#X obj 10 116 fiddle~ 1024 1 20 3;
#X obj 10 156 int;
#X floatatom 10 178 5 0 0 0 - - -, f 5;
#X floatatom 10 247 5 0 0 0 - - -, f 5;
#X obj 10 197 pack 0 100;
#X obj 10 219 line;
#X obj 55 -79 vsl 15 128 0 127 0 0 empty empty empty 0 -9 0 10 -262144
-1 -1 0 1;
#X obj 55 57 / 100;
#X obj 37 158 bng 15 250 50 0 empty empty empty 17 7 0 10 -262144 -1
-1;
#X msg 179 -91 \; pd dsp 1;
#X msg 246 -92 \; pd dsp 0;
#X text 165 24 Sound Generator;
#X text 41 -102 Sound Input;
#X text 47 310 freequency;
#X obj 10 275 mtof;
#X floatatom 10 310 5 0 0 0 - - -, f 5;
#X text 49 248 MIDI;
#X text 50 277 MIDI to Frequency;
#X text 178 -55 ON;
#X text 246 -54 OFF;
#X msg 168 47 18000;
#X obj 168 91 sig~;
#X obj 168 134 osc~;
#X obj 168 176 *~;
#X obj 168 214 dac~ 1 2;
#X msg 208 133 100;
#X msg 247 133 0;
#X text 211 52 hz;
#X text 227 217 Stereo;
#X connect 0 0 1 0;
#X connect 1 0 2 0;
#X connect 2 0 3 0;
#X connect 2 1 10 0;
#X connect 3 0 4 0;
#X connect 4 0 6 0;
#X connect 5 0 16 0;
#X connect 6 0 7 0;
#X connect 7 0 5 0;
#X connect 8 0 9 0;
#X connect 9 0 1 1;
#X connect 16 0 17 0;
#X connect 22 0 23 0;
#X connect 23 0 24 0;
#X connect 24 0 25 0;
#X connect 25 0 26 0;
#X connect 25 0 26 1;
#X connect 27 0 25 1;
#X connect 28 0 25 1;
