#N canvas 820 50 1059 988 10;
#X obj 9 -103 adc~;
#X obj 10 84 *~;
#X obj 10 116 fiddle~ 1024 1 20 3;
#X obj 10 430 int;
#X floatatom 10 453 5 0 0 0 - - -, f 5;
#X floatatom 10 522 5 0 0 0 - - -, f 5;
#X obj 10 472 pack 0 100;
#X obj 10 494 line;
#X obj 55 -81 vsl 15 128 0 127 0 0 empty empty empty 0 -9 0 10 -262144
-1 -1 12700 1;
#X obj 55 57 / 100;
#X obj 37 187 bng 30 250 50 0 empty empty empty 17 7 0 50 -262144 -1
-1;
#X msg 179 -91 \; pd dsp 1;
#X msg 246 -92 \; pd dsp 0;
#X text 165 24 Sound Generator;
#X text 41 -102 Sound Input;
#X text 47 585 freequency;
#X obj 10 550 mtof;
#X floatatom 10 585 5 900 20000 0 - - -, f 5;
#X text 49 523 MIDI;
#X text 50 552 MIDI to Frequency;
#X text 178 -55 ON;
#X text 246 -54 OFF;
#X obj 170 227 sig~;
#X obj 170 270 osc~;
#X obj 170 312 *~;
#X obj 170 350 dac~ 1 2;
#X msg 249 269 0, f 2;
#X text 211 52 hz;
#X text 229 353 Stereo;
#X msg 210 269 1;
#X obj 170 49 bng 15 250 50 0 empty empty empty 17 7 0 10 -262144 -1
-1;
#X floatatom 170 196 5 0 0 0 - - -, f 5;
#X msg 296 267 0.03;
#X msg 179 72 12000;
#X msg 134 71 600;
#X floatatom 71 310 5 0 0 0 - - -, f 5;
#X obj 71 159 mtof;
#X obj 71 355 print;
#X msg 452 76 18000;
#X msg 222 73 13000;
#X msg 268 74 14000;
#X msg 316 74 15000;
#X msg 362 75 16000;
#X msg 407 75 17000;
#X obj 94 250 spigot 900;
#X obj 118 188 tgl 15 0 empty empty empty 17 7 0 10 -262144 -1 -1 0
1;
#X connect 0 0 1 0;
#X connect 1 0 2 0;
#X connect 2 0 3 0;
#X connect 2 0 36 0;
#X connect 2 1 10 0;
#X connect 3 0 4 0;
#X connect 4 0 6 0;
#X connect 5 0 16 0;
#X connect 6 0 7 0;
#X connect 7 0 5 0;
#X connect 8 0 9 0;
#X connect 9 0 1 1;
#X connect 16 0 17 0;
#X connect 22 0 23 0;
#X connect 23 0 24 0;
#X connect 24 0 25 0;
#X connect 24 0 25 1;
#X connect 26 0 24 1;
#X connect 29 0 24 1;
#X connect 30 0 31 0;
#X connect 31 0 22 0;
#X connect 32 0 24 1;
#X connect 33 0 31 0;
#X connect 34 0 31 0;
#X connect 35 0 37 0;
#X connect 36 0 44 0;
#X connect 38 0 31 0;
#X connect 39 0 31 0;
#X connect 40 0 31 0;
#X connect 41 0 31 0;
#X connect 42 0 31 0;
#X connect 43 0 31 0;
#X connect 44 0 35 0;
#X connect 45 0 44 1;
